<?xml version="1.0" standalone="no"?>
<!DOCTYPE svg PUBLIC "-//W3C//DTD SVG 20010904//EN"
 "http://www.w3.org/TR/2001/REC-SVG-20010904/DTD/svg10.dtd">
<svg version="1.0" xmlns="http://www.w3.org/2000/svg"
 width="512.000000pt" height="512.000000pt" viewBox="0 0 512.000000 512.000000"
 preserveAspectRatio="xMidYMid meet">

<g transform="translate(0.000000,512.000000) scale(0.100000,-0.100000)"
fill="#000000" stroke="none">
<path d="M3840 4640 l0 -160 207 0 208 0 -847 -847 -848 -848 -320 320 -320
320 -775 -775 -775 -775 112 -112 113 -113 662 662 663 663 320 -320 320 -320
960 960 960 960 0 -208 0 -207 160 0 160 0 0 480 0 480 -480 0 -480 0 0 -160z"/>
<path d="M3647 2912 l-127 -127 0 -1233 0 -1232 640 0 640 0 0 1233 0 1232
-128 128 -127 127 -385 0 -385 0 -128 -128z m800 -224 l33 -32 0 -1008 0
-1008 -320 0 -320 0 0 1007 0 1007 32 33 32 33 255 0 255 0 33 -32z"/>
<path d="M2047 1952 l-127 -127 0 -753 0 -752 640 0 640 0 0 753 0 752 -128
128 -127 127 -385 0 -385 0 -128 -128z m800 -224 l33 -32 0 -528 0 -528 -320
0 -320 0 0 527 0 527 32 33 32 33 255 0 255 0 33 -32z"/>
<path d="M447 1312 l-127 -127 0 -433 0 -432 640 0 640 0 0 433 0 432 -128
128 -127 127 -385 0 -385 0 -128 -128z m800 -224 l33 -32 0 -208 0 -208 -320
0 -320 0 0 207 0 207 32 33 32 33 255 0 255 0 33 -32z"/>
</g>
</svg>
